<svg xmlns:xlink="http://www.w3.org/1999/xlink" xmlns="http://www.w3.org/2000/svg" viewBox="0 0 24 24" aria-hidden="true" class="r-1kihuf0 r-jwli3a r-4qtqp9 r-yyyyoo r-1xvli5t r-1d4mawv r-dnmrzs r-bnwqim r-1plcrui r-lrvibr r-19wmn03" width="24"  height="24" ><g fill="#FFFFFF"><path d="M18.707 10.293l-6-6c-.39-.39-1.023-.39-1.414 0l-6 6c-.39.39-.39 1.023 0 1.414.195.195.45.293.707.293s.512-.098.707-.293L11 7.414V20c0 .553.447 1 1 1s1-.447 1-1V7.414l4.293 4.293c.195.195.45.293.707.293s.512-.098.707-.293c.39-.39.39-1.023 0-1.414z" fill="#FFFFFF"></path></g></svg>