<?xml version="1.0" encoding="iso-8859-1"?>
<!-- Generator: Adobe Illustrator 18.0.0, SVG Export Plug-In . SVG Version: 6.00 Build 0)  -->
<!DOCTYPE svg PUBLIC "-//W3C//DTD SVG 1.1//EN" "http://www.w3.org/Graphics/SVG/1.1/DTD/svg11.dtd">
    <svg version="1.1" id="icon" xmlns="http://www.w3.org/2000/svg" xmlns:xlink="http://www.w3.org/1999/xlink" x="0px" y="0px"
                viewBox="0 0 464.128 464.128" style="enable-background:new 0 0 464.128 464.128;" xml:space="preserve">
           <g>
               <path d="M464.128,98.721c0-13.848-11.266-25.113-25.113-25.113H25.113C11.266,73.607,0,84.873,0,98.721v41.037h29.318v204.401
                   c0,25.563,20.798,46.361,46.361,46.361h312.77c25.563,0,46.361-20.798,46.361-46.361V139.758h29.317V98.721z M419.811,344.159
                   c0,17.293-14.068,31.361-31.361,31.361H75.68c-17.293,0-31.361-14.068-31.361-31.361V139.758h375.492V344.159z M449.128,124.758
                   h-14.317H29.318H15V98.721c0-5.576,4.537-10.113,10.113-10.113h413.901c5.576,0,10.113,4.537,10.113,10.113V124.758z"/>
               <path d="M229.146,340.526c44.034,0,79.859-35.825,79.859-79.859c0-32.564-22.117-68.849-53.854-68.849
                   c-5.916,0-11.772,1.279-17.517,3.801c0.013-3.278-0.118-6.861-0.508-10.511c-2.628-24.636-14.598-32.09-24.177-34.006
                   l-2.941,14.709c10.834,2.167,12.908,19.145,12.61,31.853c-6.091-2.492-12.27-3.75-18.469-3.75
                   c-15.062,0-29.134,7.448-39.624,20.973c-9.685,12.485-15.239,29.172-15.239,45.78C149.286,304.701,185.111,340.526,229.146,340.526
                   z M204.149,208.914c6.861,0,13.881,2.339,20.861,6.951l4.568,3.018l4.267-3.431c7.123-5.729,14.291-8.634,21.306-8.634
                   c18.341,0,38.854,23.029,38.854,53.849c0,35.764-29.096,64.859-64.859,64.859s-64.859-29.096-64.859-64.859
                   C164.286,232.614,182.541,208.914,204.149,208.914z"/>
           </g>
           <g>
           </g>
           <g>
           </g>
           <g>
           </g>
           <g>
           </g>
           <g>
           </g>
           <g>
           </g>
           <g>
           </g>
           <g>
           </g>
           <g>
           </g>
           <g>
           </g>
           <g>
           </g>
           <g>
           </g>
           <g>
           </g>
           <g>
           </g>
           <g>
           </g>
           </svg>
           