<?xml version="1.0" ?><svg width="24px" height="24px" viewBox="0 0 24 24" xmlns="http://www.w3.org/2000/svg"><defs><style>.cls-1{fill:none;}</style></defs><g id="Artwork"><path d="M19.11,9.59h-5.4V3.28a1.26,1.26,0,0,0-2.15-.89l-.15.18L4,12.47l-.15.19a1.21,1.21,0,0,0-.21.71,1.27,1.27,0,0,0,1.26,1.26H11v6.09A1.27,1.27,0,0,0,12.21,22a1.25,1.25,0,0,0,1-.49l.08-.1,6.82-9.77.07-.11a1.22,1.22,0,0,0,.19-.66A1.25,1.25,0,0,0,19.11,9.59Zm-6.27,9.12v-6H6.15l5.67-7.57v6.31H17.9Z"/><rect class="cls-1" height="24" width="24"/></g></svg>